<mxfile host="Electron" agent="Mozilla/5.0 (Windows NT 10.0; Win64; x64) AppleWebKit/537.36 (KHTML, like Gecko) draw.io/24.7.17 Chrome/128.0.6613.36 Electron/32.0.1 Safari/537.36" version="24.7.17">
  <diagram name="Page-1" id="2YBvvXClWsGukQMizWep">
    <mxGraphModel dx="794" dy="607" grid="1" gridSize="10" guides="1" tooltips="1" connect="1" arrows="1" fold="1" page="1" pageScale="1" pageWidth="850" pageHeight="1100" math="0" shadow="0">
      <root>
        <mxCell id="0" />
        <mxCell id="1" parent="0" />
        <mxCell id="8B1qsTXkBDc8vsMzSOU1-50" value="execute(incomes, spendings)" style="html=1;verticalAlign=bottom;endArrow=block;curved=0;rounded=0;" parent="1" edge="1">
          <mxGeometry width="80" relative="1" as="geometry">
            <mxPoint x="40" y="120" as="sourcePoint" />
            <mxPoint x="355" y="120" as="targetPoint" />
          </mxGeometry>
        </mxCell>
        <mxCell id="8B1qsTXkBDc8vsMzSOU1-52" value=":EditCommand" style="shape=umlLifeline;perimeter=lifelinePerimeter;whiteSpace=wrap;html=1;container=1;dropTarget=0;collapsible=0;recursiveResize=0;outlineConnect=0;portConstraint=eastwest;newEdgeStyle={&quot;curved&quot;:0,&quot;rounded&quot;:0};" parent="1" vertex="1">
          <mxGeometry x="310" y="50" width="100" height="590" as="geometry" />
        </mxCell>
        <mxCell id="8B1qsTXkBDc8vsMzSOU1-54" value="" style="html=1;points=[[0,0,0,0,5],[0,1,0,0,-5],[1,0,0,0,5],[1,1,0,0,-5]];perimeter=orthogonalPerimeter;outlineConnect=0;targetShapes=umlLifeline;portConstraint=eastwest;newEdgeStyle={&quot;curved&quot;:0,&quot;rounded&quot;:0};" parent="8B1qsTXkBDc8vsMzSOU1-52" vertex="1">
          <mxGeometry x="45" y="70" width="10" height="480" as="geometry" />
        </mxCell>
        <mxCell id="ubfpnPzyrTSR-aziFiTh-6" value="&lt;br&gt;Verify user input" style="html=1;align=left;spacingLeft=2;endArrow=block;rounded=0;edgeStyle=orthogonalEdgeStyle;curved=0;rounded=0;" parent="8B1qsTXkBDc8vsMzSOU1-52" edge="1">
          <mxGeometry x="-0.0596" relative="1" as="geometry">
            <mxPoint x="60" y="107" as="sourcePoint" />
            <Array as="points">
              <mxPoint x="60" y="117" />
              <mxPoint x="90" y="117" />
              <mxPoint x="90" y="137" />
            </Array>
            <mxPoint x="65" y="137.0344827586207" as="targetPoint" />
            <mxPoint as="offset" />
          </mxGeometry>
        </mxCell>
        <mxCell id="ubfpnPzyrTSR-aziFiTh-1" value="" style="html=1;points=[[0,0,0,0,5],[0,1,0,0,-5],[1,0,0,0,5],[1,1,0,0,-5]];perimeter=orthogonalPerimeter;outlineConnect=0;targetShapes=umlLifeline;portConstraint=eastwest;newEdgeStyle={&quot;curved&quot;:0,&quot;rounded&quot;:0};" parent="1" vertex="1">
          <mxGeometry x="360" y="151" width="10" height="419" as="geometry" />
        </mxCell>
        <mxCell id="8B1qsTXkBDc8vsMzSOU1-63" value="alt" style="shape=umlFrame;whiteSpace=wrap;html=1;pointerEvents=0;" parent="1" vertex="1">
          <mxGeometry x="190" y="250" width="610" height="280" as="geometry" />
        </mxCell>
        <mxCell id="8B1qsTXkBDc8vsMzSOU1-55" value="" style="shape=umlDestroy;whiteSpace=wrap;html=1;strokeWidth=3;targetShapes=umlLifeline;fillColor=#ffcccc;strokeColor=#FF0000;fillStyle=solid;" parent="1" vertex="1">
          <mxGeometry x="345" y="620" width="30" height="30" as="geometry" />
        </mxCell>
        <mxCell id="8B1qsTXkBDc8vsMzSOU1-66" value="incomes:IncomeList" style="shape=umlLifeline;perimeter=lifelinePerimeter;whiteSpace=wrap;html=1;container=1;dropTarget=0;collapsible=0;recursiveResize=0;outlineConnect=0;portConstraint=eastwest;newEdgeStyle={&quot;curved&quot;:0,&quot;rounded&quot;:0};" parent="1" vertex="1">
          <mxGeometry x="501" y="50" width="120" height="590" as="geometry" />
        </mxCell>
        <mxCell id="8B1qsTXkBDc8vsMzSOU1-77" value="" style="html=1;points=[[0,0,0,0,5],[0,1,0,0,-5],[1,0,0,0,5],[1,1,0,0,-5]];perimeter=orthogonalPerimeter;outlineConnect=0;targetShapes=umlLifeline;portConstraint=eastwest;newEdgeStyle={&quot;curved&quot;:0,&quot;rounded&quot;:0};" parent="8B1qsTXkBDc8vsMzSOU1-66" vertex="1">
          <mxGeometry x="55" y="246" width="10" height="30" as="geometry" />
        </mxCell>
        <mxCell id="8B1qsTXkBDc8vsMzSOU1-67" value="spendings:SpendingList" style="shape=umlLifeline;perimeter=lifelinePerimeter;whiteSpace=wrap;html=1;container=1;dropTarget=0;collapsible=0;recursiveResize=0;outlineConnect=0;portConstraint=eastwest;newEdgeStyle={&quot;curved&quot;:0,&quot;rounded&quot;:0};" parent="1" vertex="1">
          <mxGeometry x="660" y="50" width="140" height="590" as="geometry" />
        </mxCell>
        <mxCell id="8B1qsTXkBDc8vsMzSOU1-78" value="" style="html=1;points=[[0,0,0,0,5],[0,1,0,0,-5],[1,0,0,0,5],[1,1,0,0,-5]];perimeter=orthogonalPerimeter;outlineConnect=0;targetShapes=umlLifeline;portConstraint=eastwest;newEdgeStyle={&quot;curved&quot;:0,&quot;rounded&quot;:0};" parent="8B1qsTXkBDc8vsMzSOU1-67" vertex="1">
          <mxGeometry x="65" y="402" width="10" height="28" as="geometry" />
        </mxCell>
        <mxCell id="8B1qsTXkBDc8vsMzSOU1-68" value="[isIncomeList]" style="text;html=1;align=center;verticalAlign=middle;resizable=0;points=[];autosize=1;strokeColor=none;fillColor=none;" parent="1" vertex="1">
          <mxGeometry x="245" y="245" width="100" height="30" as="geometry" />
        </mxCell>
        <mxCell id="8B1qsTXkBDc8vsMzSOU1-69" value="[isSpendingList]" style="text;strokeColor=none;align=center;fillColor=none;html=1;verticalAlign=middle;whiteSpace=wrap;rounded=0;" parent="1" vertex="1">
          <mxGeometry x="210" y="391" width="60" height="30" as="geometry" />
        </mxCell>
        <mxCell id="8B1qsTXkBDc8vsMzSOU1-71" value="Extract entry" style="html=1;verticalAlign=bottom;endArrow=block;curved=0;rounded=0;" parent="1" edge="1">
          <mxGeometry x="0.0017" width="80" relative="1" as="geometry">
            <mxPoint x="368" y="295" as="sourcePoint" />
            <mxPoint x="556" y="295" as="targetPoint" />
            <mxPoint as="offset" />
          </mxGeometry>
        </mxCell>
        <mxCell id="8B1qsTXkBDc8vsMzSOU1-72" value="Extract entry" style="html=1;verticalAlign=bottom;endArrow=block;curved=0;rounded=0;entryX=0.5;entryY=0;entryDx=0;entryDy=0;entryPerimeter=0;" parent="1" edge="1">
          <mxGeometry x="-0.6274" y="-2" width="80" relative="1" as="geometry">
            <mxPoint x="365" y="451" as="sourcePoint" />
            <mxPoint x="725" y="451" as="targetPoint" />
            <mxPoint as="offset" />
          </mxGeometry>
        </mxCell>
        <mxCell id="ubfpnPzyrTSR-aziFiTh-2" value="handleCommand(...)" style="html=1;align=left;spacingLeft=2;endArrow=block;rounded=0;edgeStyle=orthogonalEdgeStyle;curved=0;rounded=0;entryX=1;entryY=0;entryDx=0;entryDy=0;entryPerimeter=0;" parent="1" source="8B1qsTXkBDc8vsMzSOU1-54" target="ubfpnPzyrTSR-aziFiTh-1" edge="1">
          <mxGeometry relative="1" as="geometry">
            <mxPoint x="371" y="135" as="sourcePoint" />
            <Array as="points">
              <mxPoint x="390" y="135" />
              <mxPoint x="390" y="151" />
            </Array>
            <mxPoint x="376" y="159" as="targetPoint" />
          </mxGeometry>
        </mxCell>
        <mxCell id="ubfpnPzyrTSR-aziFiTh-9" value="" style="html=1;points=[[0,0,0,0,5],[0,1,0,0,-5],[1,0,0,0,5],[1,1,0,0,-5]];perimeter=orthogonalPerimeter;outlineConnect=0;targetShapes=umlLifeline;portConstraint=eastwest;newEdgeStyle={&quot;curved&quot;:0,&quot;rounded&quot;:0};" parent="1" vertex="1">
          <mxGeometry x="365" y="187" width="10" height="30" as="geometry" />
        </mxCell>
        <mxCell id="ubfpnPzyrTSR-aziFiTh-12" value="" style="html=1;points=[[0,0,0,0,5],[0,1,0,0,-5],[1,0,0,0,5],[1,1,0,0,-5]];perimeter=orthogonalPerimeter;outlineConnect=0;targetShapes=umlLifeline;portConstraint=eastwest;newEdgeStyle={&quot;curved&quot;:0,&quot;rounded&quot;:0};" parent="1" vertex="1">
          <mxGeometry x="365" y="419" width="10" height="91" as="geometry" />
        </mxCell>
        <mxCell id="ubfpnPzyrTSR-aziFiTh-13" value="determine and edit attribute" style="html=1;align=left;spacingLeft=2;endArrow=block;rounded=0;edgeStyle=orthogonalEdgeStyle;curved=0;rounded=0;" parent="1" edge="1">
          <mxGeometry x="-0.0133" y="4" relative="1" as="geometry">
            <mxPoint x="370" y="409" as="sourcePoint" />
            <Array as="points">
              <mxPoint x="376" y="409" />
              <mxPoint x="406" y="409" />
              <mxPoint x="406" y="419" />
            </Array>
            <mxPoint x="376.0344827586207" y="418" as="targetPoint" />
            <mxPoint as="offset" />
          </mxGeometry>
        </mxCell>
        <mxCell id="ubfpnPzyrTSR-aziFiTh-14" value="determine and edit attribute" style="html=1;align=left;spacingLeft=2;endArrow=block;rounded=0;edgeStyle=orthogonalEdgeStyle;curved=0;rounded=0;" parent="1" edge="1">
          <mxGeometry x="-0.0133" y="4" relative="1" as="geometry">
            <mxPoint x="369" y="262" as="sourcePoint" />
            <Array as="points">
              <mxPoint x="375" y="262" />
              <mxPoint x="405" y="262" />
              <mxPoint x="405" y="272" />
            </Array>
            <mxPoint x="375.0344827586207" y="271" as="targetPoint" />
            <mxPoint as="offset" />
          </mxGeometry>
        </mxCell>
        <mxCell id="ubfpnPzyrTSR-aziFiTh-15" value="" style="html=1;points=[[0,0,0,0,5],[0,1,0,0,-5],[1,0,0,0,5],[1,1,0,0,-5]];perimeter=orthogonalPerimeter;outlineConnect=0;targetShapes=umlLifeline;portConstraint=eastwest;newEdgeStyle={&quot;curved&quot;:0,&quot;rounded&quot;:0};" parent="1" vertex="1">
          <mxGeometry x="365" y="271" width="10" height="99" as="geometry" />
        </mxCell>
        <mxCell id="ubfpnPzyrTSR-aziFiTh-16" value="" style="endArrow=block;dashed=1;endFill=1;html=1;rounded=0;" parent="1" target="ubfpnPzyrTSR-aziFiTh-15" edge="1">
          <mxGeometry width="160" relative="1" as="geometry">
            <mxPoint x="553" y="326" as="sourcePoint" />
            <mxPoint x="393" y="326" as="targetPoint" />
          </mxGeometry>
        </mxCell>
        <mxCell id="ubfpnPzyrTSR-aziFiTh-17" value="" style="endArrow=block;dashed=1;endFill=1;html=1;rounded=0;" parent="1" edge="1">
          <mxGeometry width="160" relative="1" as="geometry">
            <mxPoint x="723" y="479.15999999999997" as="sourcePoint" />
            <mxPoint x="375" y="479.1600000000001" as="targetPoint" />
          </mxGeometry>
        </mxCell>
        <mxCell id="ubfpnPzyrTSR-aziFiTh-18" value="" style="endArrow=block;dashed=1;endFill=1;html=1;rounded=0;" parent="1" target="ubfpnPzyrTSR-aziFiTh-1" edge="1">
          <mxGeometry width="160" relative="1" as="geometry">
            <mxPoint x="375.81034482758605" y="216" as="sourcePoint" />
            <mxPoint x="420" y="240" as="targetPoint" />
            <Array as="points">
              <mxPoint x="400" y="216" />
              <mxPoint x="400" y="230" />
            </Array>
          </mxGeometry>
        </mxCell>
        <mxCell id="ubfpnPzyrTSR-aziFiTh-19" value="" style="endArrow=block;dashed=1;endFill=1;html=1;rounded=0;" parent="1" edge="1">
          <mxGeometry width="160" relative="1" as="geometry">
            <mxPoint x="375.81034482758605" y="370" as="sourcePoint" />
            <mxPoint x="370" y="384" as="targetPoint" />
            <Array as="points">
              <mxPoint x="400" y="370" />
              <mxPoint x="400" y="384" />
            </Array>
          </mxGeometry>
        </mxCell>
        <mxCell id="ubfpnPzyrTSR-aziFiTh-20" value="" style="endArrow=block;dashed=1;endFill=1;html=1;rounded=0;" parent="1" edge="1">
          <mxGeometry width="160" relative="1" as="geometry">
            <mxPoint x="375.81034482758605" y="510" as="sourcePoint" />
            <mxPoint x="370" y="524" as="targetPoint" />
            <Array as="points">
              <mxPoint x="400" y="510" />
              <mxPoint x="400" y="524" />
            </Array>
          </mxGeometry>
        </mxCell>
        <mxCell id="ubfpnPzyrTSR-aziFiTh-21" value="" style="endArrow=block;dashed=1;endFill=1;html=1;rounded=0;" parent="1" edge="1">
          <mxGeometry width="160" relative="1" as="geometry">
            <mxPoint x="370.81034482758605" y="570" as="sourcePoint" />
            <mxPoint x="365" y="584" as="targetPoint" />
            <Array as="points">
              <mxPoint x="395" y="570" />
              <mxPoint x="395" y="584" />
            </Array>
          </mxGeometry>
        </mxCell>
        <mxCell id="ubfpnPzyrTSR-aziFiTh-22" value="" style="endArrow=block;dashed=1;endFill=1;html=1;rounded=0;" parent="1" edge="1">
          <mxGeometry width="160" relative="1" as="geometry">
            <mxPoint x="354" y="599.16" as="sourcePoint" />
            <mxPoint x="40" y="600" as="targetPoint" />
          </mxGeometry>
        </mxCell>
        <mxCell id="ubfpnPzyrTSR-aziFiTh-23" value=":Income" style="text;html=1;align=center;verticalAlign=middle;resizable=0;points=[];autosize=1;strokeColor=none;fillColor=none;" parent="1" vertex="1">
          <mxGeometry x="415" y="300" width="70" height="30" as="geometry" />
        </mxCell>
        <mxCell id="ubfpnPzyrTSR-aziFiTh-25" value=":Spending" style="text;html=1;align=center;verticalAlign=middle;resizable=0;points=[];autosize=1;strokeColor=none;fillColor=none;" parent="1" vertex="1">
          <mxGeometry x="484" y="454" width="80" height="30" as="geometry" />
        </mxCell>
        <mxCell id="ubfpnPzyrTSR-aziFiTh-26" value="return" style="text;strokeColor=none;align=center;fillColor=none;html=1;verticalAlign=middle;whiteSpace=wrap;rounded=0;" parent="1" vertex="1">
          <mxGeometry x="390" y="209" width="60" height="30" as="geometry" />
        </mxCell>
        <mxCell id="ubfpnPzyrTSR-aziFiTh-27" value="return" style="text;strokeColor=none;align=center;fillColor=none;html=1;verticalAlign=middle;whiteSpace=wrap;rounded=0;" parent="1" vertex="1">
          <mxGeometry x="390" y="361" width="60" height="30" as="geometry" />
        </mxCell>
        <mxCell id="ubfpnPzyrTSR-aziFiTh-28" value="return" style="text;strokeColor=none;align=center;fillColor=none;html=1;verticalAlign=middle;whiteSpace=wrap;rounded=0;" parent="1" vertex="1">
          <mxGeometry x="390" y="500" width="60" height="30" as="geometry" />
        </mxCell>
        <mxCell id="ubfpnPzyrTSR-aziFiTh-29" value="return" style="text;strokeColor=none;align=center;fillColor=none;html=1;verticalAlign=middle;whiteSpace=wrap;rounded=0;" parent="1" vertex="1">
          <mxGeometry x="383" y="561" width="60" height="30" as="geometry" />
        </mxCell>
        <mxCell id="ubfpnPzyrTSR-aziFiTh-30" value="return" style="text;strokeColor=none;align=center;fillColor=none;html=1;verticalAlign=middle;whiteSpace=wrap;rounded=0;" parent="1" vertex="1">
          <mxGeometry x="150" y="572" width="60" height="30" as="geometry" />
        </mxCell>
        <mxCell id="08XF9rimV2lVzdG81gqN-1" value="" style="endArrow=none;dashed=1;html=1;rounded=0;entryX=1.004;entryY=0.511;entryDx=0;entryDy=0;entryPerimeter=0;exitX=0.006;exitY=0.514;exitDx=0;exitDy=0;exitPerimeter=0;" parent="1" edge="1">
          <mxGeometry width="50" height="50" relative="1" as="geometry">
            <mxPoint x="191.65999999999997" y="393.9200000000001" as="sourcePoint" />
            <mxPoint x="800.44" y="393.08000000000004" as="targetPoint" />
          </mxGeometry>
        </mxCell>
        <mxCell id="hOoxKw4eoSAPHiznsriz-1" value="&lt;b&gt;sd&lt;/b&gt; execute command" style="shape=umlFrame;whiteSpace=wrap;html=1;pointerEvents=0;width=140;height=33;" parent="1" vertex="1">
          <mxGeometry x="20" y="17" width="820" height="643" as="geometry" />
        </mxCell>
        <mxCell id="hOoxKw4eoSAPHiznsriz-2" value="" style="endArrow=none;dashed=1;html=1;rounded=0;fontSize=12;startSize=8;endSize=8;curved=1;" parent="1" edge="1">
          <mxGeometry width="50" height="50" relative="1" as="geometry">
            <mxPoint x="39" y="77" as="sourcePoint" />
            <mxPoint x="39" y="635" as="targetPoint" />
          </mxGeometry>
        </mxCell>
      </root>
    </mxGraphModel>
  </diagram>
</mxfile>
